<svg height="512pt" viewBox="-73 0 512 512" width="512pt" xmlns="http://www.w3.org/2000/svg"><path d="m103 106c5.519531 0 10-4.480469 10-10 0-5.445312-4.425781-10-10-10-5.519531 0-10 4.480469-10 10 0 5.5625 4.539062 10 10 10zm0 0"/><path d="m183 512c3.082031 0 5.992188-1.421875 7.890625-3.855469 7.148437-9.179687 175.109375-225.925781 175.109375-322.144531 0-97.34375-81.574219-186-183-186-101.316406 0-183 88.535156-183 186 0 96.21875 167.960938 312.964844 175.109375 322.144531 1.898437 2.433594 4.808594 3.855469 7.890625 3.855469zm-163-326c0-88.429688 76.167969-166 163-166s163 77.570312 163 166c0 74.410156-118.148438 240.070312-163 299.515625-45.1875-59.875-163-225.292969-163-299.515625zm0 0"/><path d="m313 186c0-71.683594-58.316406-130-130-130-17.066406 0-32.828125 3.125-49.605469 9.835938-5.125 2.050781-7.621093 7.871093-5.570312 13 2.050781 5.125 7.871093 7.621093 13 5.570312 14.53125-5.8125 27.539062-8.40625 42.175781-8.40625 60.652344 0 110 49.347656 110 110s-49.347656 110-110 110-110-49.347656-110-110c0-18.824219 4.71875-36.898438 14.03125-53.730469 2.671875-4.832031.921875-10.914062-3.910156-13.589843-4.832032-2.671876-10.917969-.921876-13.59375 3.910156-10.964844 19.828125-16.527344 41.160156-16.527344 63.410156 0 71.683594 58.316406 130 130 130s130-58.316406 130-130zm0 0"/><path d="m171.785156 124.785156c-27.636718 0-50 22.359375-50 50 0 27.636719 22.359375 50 50 50 9.957032 0 19.46875-2.894531 27.578125-8.277344l36.066407 36.0625c3.902343 3.90625 10.234374 3.90625 14.140624 0 3.90625-3.902343 3.90625-10.234374 0-14.140624l-36.0625-36.066407c5.382813-8.109375 8.277344-17.621093 8.277344-27.578125 0-27.636718-22.359375-50-50-50zm-30 50c0-16.582031 13.414063-30 30-30 16.582032 0 30 13.414063 30 30 0 16.582032-13.414062 30-30 30-16.582031 0-30-13.417968-30-30zm0 0"/></svg>