<svg height="512pt" viewBox="0 0 512 512" width="512pt" xmlns="http://www.w3.org/2000/svg"><path d="m321.066406 135.90625c-19.214844-12.75-43.34375-26.949219-81.316406-26.949219h-23.664062v149.964844h23.664062c32.003906 0 50.261719 12.242187 69.59375 25.199219 3.167969 2.125 3.265625 2.183594 11.71875 7.820312 7.160156-4.777344 7.769531-5.167968 11.890625-7.9375 18.359375-12.332031 37.34375-25.082031 69.421875-25.082031h23.660156v-149.960937h-23.660156c-37.933594-.003907-61.292969 13.683593-81.308594 26.945312zm-74.984375 3.214844c26.605469 1.457031 43.804688 12.019531 59.984375 22.828125v84.589843c-15.6875-8.9375-34.367187-16.414062-59.984375-17.480468zm149.960938 89.941406c-25.515625 1.09375-44.484375 8.71875-59.984375 17.492188 0-10.875 0-74.589844 0-84.597657 16.859375-11.242187 33.539062-21.433593 59.984375-22.839843zm0 0"/><path d="m317.046875 0c-107.742187 0-194.953125 87.195312-194.953125 194.953125 0 36.726563 10.101562 71.898437 28.96875 102.363281l-151.0625 151.058594 63.625 63.625 151.058594-151.058594c30.464844 18.863282 65.636718 28.964844 102.363281 28.964844 107.746094 0 194.953125-87.191406 194.953125-194.953125 0-107.746094-87.191406-194.953125-194.953125-194.953125zm-274.632813 448.375 83.761719-83.757812 21.207031 21.207031-83.757812 83.761719zm126.175782-83.757812-21.207032-21.207032 21.609376-21.613281c6.566406 7.636719 13.574218 14.644531 21.210937 21.210937zm148.457031-4.703126c-91.167969 0-164.960937-73.78125-164.960937-164.960937 0-91.167969 73.78125-164.960937 164.960937-164.960937 91.167969 0 164.960937 73.78125 164.960937 164.960937 0 91.167969-73.777343 164.960937-164.960937 164.960937zm0 0"/></svg>